<svg width="72" height="24" viewBox="0 0 72 24" fill="none" xmlns="http://www.w3.org/2000/svg">
<path fill-rule="evenodd" clip-rule="evenodd" d="M26.4069 9.37071H22.6617C20.9178 9.37071 20.0907 9.07154 20.0907 8.46233V5.43739C20.0907 4.82878 20.9178 4.52941 22.6617 4.52941H26.4069C28.1507 4.52941 28.9776 4.82878 28.9776 5.43739V8.46233C28.9776 9.07154 28.1507 9.37071 26.4069 9.37071V9.37071ZM26.4069 10.803C29.5254 10.803 31.0843 9.99703 31.0843 8.34946V5.55106C31.0843 3.90289 29.5254 3.0957 26.4069 3.0957H22.6617C19.543 3.0957 17.9844 3.90289 17.9844 5.55106V8.34946C17.9844 9.99703 19.543 10.803 22.6617 10.803H26.4069Z" fill="#111111"/>
<mask id="mask0_202_2624" style="mask-type:luminance" maskUnits="userSpaceOnUse" x="58" y="3" width="14" height="8">
<path fill-rule="evenodd" clip-rule="evenodd" d="M58.0999 3.09619H71.1995V10.8031H58.0999V3.09619Z" fill="white"/>
</mask>
<g mask="url(#mask0_202_2624)">
<path fill-rule="evenodd" clip-rule="evenodd" d="M66.5223 9.3708H62.7771C61.0335 9.3708 60.2064 9.07163 60.2064 8.46241V5.43768C60.2064 4.82907 61.0335 4.52969 62.7771 4.52969H66.5223C68.266 4.52969 69.0929 4.82907 69.0929 5.43768V8.46241C69.0929 9.07163 68.266 9.3708 66.5223 9.3708V9.3708ZM66.5223 10.8031C69.6408 10.8031 71.1996 9.99711 71.1996 8.34954V5.55135C71.1996 3.90318 69.6408 3.09619 66.5223 3.09619H62.7771C59.6588 3.09619 58.0999 3.90318 58.0999 5.55135V8.34954C58.0999 9.99711 59.6588 10.8031 62.7771 10.8031H66.5223Z" fill="#111111"/>
</g>
<mask id="mask1_202_2624" style="mask-type:luminance" maskUnits="userSpaceOnUse" x="0" y="1" width="16" height="10">
<path fill-rule="evenodd" clip-rule="evenodd" d="M0.800003 1.00098H15.8259V10.8031H0.800003V1.00098Z" fill="white"/>
</mask>
<g mask="url(#mask1_202_2624)">
<path fill-rule="evenodd" clip-rule="evenodd" d="M15.8259 8.31354V6.37847C15.8259 5.95938 15.5676 5.76845 15.0473 5.76845H10.4814C10.0689 5.76845 9.73195 6.12134 9.73195 6.5521C9.73195 6.98386 10.0689 7.33655 10.4814 7.33655H13.6045V8.37672C13.6045 8.68897 13.1987 8.99076 12.5185 9.17404C11.9783 9.31951 11.5278 9.33339 11.0494 9.33339H6.02637C4.0243 9.33339 3.02135 9.00222 3.02135 8.33768V3.42294C3.02135 2.76061 4.21845 2.45299 6.60863 2.45299H8.0208C8.5608 2.45299 8.83201 2.20934 8.83201 1.72447C8.83201 1.2418 8.5608 1.00098 8.0208 1.00098H6.01672C4.80714 1.00098 3.69394 1.13376 2.70085 1.47519C1.57135 1.86309 0.79998 2.54594 0.79998 3.42716V8.34734C0.79998 9.26357 1.42267 9.92892 2.66323 10.3452C3.56598 10.6498 4.67617 10.8031 5.99921 10.8031H11.0457C12.277 10.8031 13.32 10.6333 14.1757 10.2953C15.2768 9.86273 15.8259 9.20241 15.8259 8.31354" fill="#111111"/>
</g>
<path fill-rule="evenodd" clip-rule="evenodd" d="M46.2753 4.82123C46.2753 5.61172 45.2886 5.84088 43.356 5.84088H35.5036V2.45299H43.356C45.2886 2.45299 46.2753 2.68215 46.2753 3.47283V4.82123ZM46.5636 1.41322C45.6807 1.14946 44.611 1.00098 43.356 1.00098H33.9164C33.5665 1.00098 33.2828 1.28466 33.2828 1.63453V10.1607C33.2828 10.5896 33.5496 10.8029 34.063 10.8029H34.7234C35.237 10.8029 35.5036 10.5896 35.5036 10.1607V7.29289H43.356C44.6927 7.29289 45.7202 7.14662 46.666 6.83397C47.8802 6.38812 48.4968 5.67892 48.4968 4.70796V3.17567C48.4968 2.40088 47.8593 1.80796 46.5636 1.41322V1.41322Z" fill="#111111"/>
<path fill-rule="evenodd" clip-rule="evenodd" d="M55.8476 3.0963C53.9107 3.0963 53.0908 3.06109 51.9432 3.53188C50.864 3.97431 50.4047 4.75292 50.4047 5.46917V10.1916C50.4047 10.6 50.6588 10.8034 51.1479 10.8034H51.7766C52.2655 10.8034 52.5196 10.6 52.5196 10.1916V5.46917C52.5196 4.80946 53.3371 4.5298 54.9573 4.5298H55.8625C56.3916 4.5298 56.6425 4.28817 56.6425 3.81295C56.6425 3.33994 56.3767 3.0963 55.8476 3.0963" fill="#111111"/>
<mask id="mask2_202_2624" style="mask-type:luminance" maskUnits="userSpaceOnUse" x="0" y="1" width="72" height="23">
<path fill-rule="evenodd" clip-rule="evenodd" d="M0.800003 23.2175H71.1997V1.00098H0.800003V23.2175Z" fill="white"/>
</mask>
<g mask="url(#mask2_202_2624)">
<path fill-rule="evenodd" clip-rule="evenodd" d="M0.800003 23.2174H16.0754V13.2173H0.800003V23.2174Z" fill="#111111"/>
<path fill-rule="evenodd" clip-rule="evenodd" d="M19.1746 23.2174H34.45V13.2173H19.1746V23.2174Z" fill="#111111"/>
<path fill-rule="evenodd" clip-rule="evenodd" d="M37.5488 23.2174H52.8244V13.2173H37.5488V23.2174Z" fill="#111111"/>
<path fill-rule="evenodd" clip-rule="evenodd" d="M55.9238 23.2174H71.1992V13.2173H55.9238V23.2174Z" fill="#111111"/>
</g>
</svg>
